<svg xmlns="http://www.w3.org/2000/svg" width="24" height="24" fill="none" viewBox="0 0 24 24"><g clip-path="url(#a)"><path stroke="#868686" stroke-linecap="round" stroke-linejoin="round" stroke-width="2" d="M10.68 13.31a16.004 16.004 0 0 0 3.41 2.6l1.27-1.27a2 2 0 0 1 2.11-.45c.907.339 1.85.574 2.81.7a2 2 0 0 1 1.72 2v3a1.998 1.998 0 0 1-2.18 2 19.791 19.791 0 0 1-8.63-3.07 19.421 19.421 0 0 1-3.33-2.67m-2.67-3.34a19.79 19.79 0 0 1-3.07-8.63A2 2 0 0 1 4.11 2h3a2 2 0 0 1 2 1.72c.127.96.361 1.903.7 2.81a2 2 0 0 1-.45 2.11L8.09 9.91M23 1 1 23"/></g><defs><clipPath id="a"><path fill="#fff" d="M0 0h24v24H0z"/></clipPath></defs></svg>